<svg xmlns="http://www.w3.org/2000/svg" xmlns:xlink="http://www.w3.org/1999/xlink" xmlns:fi="http://pattern.flaticon.com/" x="0" y="0" width="700" height="350" viewBox="0 0 700 350"><rect x="0px" y="0px" width="100%" height="100%" opacity="1" fill="#5d04a9"/><defs><g transform="matrix(0.1171875 0 0 0.1171875 300 228)" id="L1_0"><path d="M284.682,405.593l6.398-1.297c8.444-1.712,8.444-13.781,0-15.493l-6.398-1.297  c-16.119-3.268-28.717-15.866-31.985-31.985l-1.297-6.398c-1.712-8.444-13.781-8.444-15.493,0l-1.297,6.398  c-3.268,16.119-15.866,28.717-31.985,31.985l-6.398,1.297c-8.444,1.712-8.444,13.781,0,15.493l6.398,1.297  c16.119,3.268,28.717,15.866,31.985,31.985l1.297,6.398c1.712,8.444,13.781,8.444,15.493,0l1.297-6.398  C255.965,421.459,268.563,408.861,284.682,405.593z" fill="#f9d366"/><g><path d="M397.203,445.72c-4.267,0-7.726-3.459-7.726-7.726v-20.92c0-4.267,3.459-7.726,7.726-7.726   s7.726,3.459,7.726,7.726v20.92C404.929,442.261,401.47,445.72,397.203,445.72z" fill="#dd8833"/><path d="M397.203,502.04c-4.267,0-7.726-3.459-7.726-7.726v-20.92c0-4.267,3.459-7.726,7.726-7.726   s7.726,3.459,7.726,7.726v20.92C404.929,498.582,401.47,502.04,397.203,502.04z" fill="#dd8833"/><path d="M435.823,463.421h-20.92c-4.267,0-7.726-3.459-7.726-7.726s3.459-7.726,7.726-7.726h20.92   c4.267,0,7.726,3.459,7.726,7.726S440.09,463.421,435.823,463.421z" fill="#dd8833"/><path d="M379.502,463.421h-20.92c-4.267,0-7.726-3.459-7.726-7.726s3.459-7.726,7.726-7.726h20.92   c4.267,0,7.726,3.459,7.726,7.726S383.769,463.421,379.502,463.421z" fill="#dd8833"/><path d="M46.346,348.37c-4.267,0-7.726-3.459-7.726-7.726v-20.92c0-4.267,3.459-7.726,7.726-7.726   s7.726,3.459,7.726,7.726v20.92C54.072,344.911,50.613,348.37,46.346,348.37z" fill="#dd8833"/><path d="M46.346,404.691c-4.267,0-7.726-3.459-7.726-7.726v-20.92c0-4.267,3.459-7.726,7.726-7.726   s7.726,3.459,7.726,7.726v20.92C54.072,401.232,50.613,404.691,46.346,404.691z" fill="#dd8833"/><path d="M84.967,366.07h-20.92c-4.267,0-7.726-3.459-7.726-7.726s3.459-7.726,7.726-7.726h20.92   c4.267,0,7.726,3.459,7.726,7.726S89.234,366.07,84.967,366.07z" fill="#dd8833"/><path d="M28.646,366.07H7.726c-4.267,0-7.726-3.459-7.726-7.726s3.459-7.726,7.726-7.726h20.92   c4.267,0,7.726,3.459,7.726,7.726S32.913,366.07,28.646,366.07z" fill="#dd8833"/><path d="M398.204,46.332c-4.267,0-7.726-3.459-7.726-7.726v-20.92c0-4.267,3.459-7.726,7.726-7.726   c4.267,0,7.726,3.459,7.726,7.726v20.92C405.93,42.872,402.472,46.332,398.204,46.332z" fill="#dd8833"/><path d="M398.204,102.652c-4.267,0-7.726-3.459-7.726-7.726V74.007c0-4.267,3.459-7.726,7.726-7.726   c4.267,0,7.726,3.459,7.726,7.726v20.92C405.93,99.193,402.472,102.652,398.204,102.652z" fill="#dd8833"/><path d="M436.825,64.032h-20.92c-4.267,0-7.726-3.459-7.726-7.726s3.459-7.726,7.726-7.726h20.92   c4.267,0,7.726,3.459,7.726,7.726S441.092,64.032,436.825,64.032z" fill="#dd8833"/><path d="M380.504,64.032h-20.92c-4.267,0-7.726-3.459-7.726-7.726s3.459-7.726,7.726-7.726h20.92   c4.267,0,7.726,3.459,7.726,7.726S384.771,64.032,380.504,64.032z" fill="#dd8833"/></g><g><path d="M262.382,156.253l30.626-6.209c14.458-2.932,14.458-23.595,0-26.527l-30.626-6.209   c-30.18-6.119-53.767-29.706-59.886-59.886l-6.209-30.626c-2.932-14.458-23.595-14.458-26.527,0l-6.209,30.626   c-6.119,30.18-29.706,53.767-59.886,59.886l-30.626,6.209c-14.458,2.932-14.458,23.595,0,26.527l30.626,6.209   c30.18,6.119,53.767,29.706,59.886,59.886l6.209,30.626c2.932,14.458,23.595,14.458,26.527,0l6.209-30.626   C208.614,185.959,232.202,162.373,262.382,156.253z" fill="#f9d366"/><path d="M480.152,262.816l23.52-4.769c11.104-2.251,11.104-18.121,0-20.372l-23.52-4.769   c-23.178-4.7-41.292-22.813-45.991-45.991l-4.769-23.52c-2.251-11.104-18.121-11.104-20.371,0l-4.769,23.52   c-4.7,23.178-22.813,41.292-45.991,45.991l-23.52,4.769c-11.104,2.251-11.104,18.121,0,20.372l23.52,4.769   c23.178,4.7,41.292,22.813,45.991,45.991l4.769,23.52c2.251,11.104,18.121,11.104,20.371,0l4.769-23.52   C438.861,285.63,456.976,267.515,480.152,262.816z" fill="#f9d366"/></g></g><g transform="matrix(0.1297556459903717 0 0 0.1297556459903717 126.78255462646484 224.78256519249612)" id="L1_2"><path d="M461.503,70.331c-3.102-2.194-7.021,1.468-4.958,4.659c17.112,26.472,49.262,89.139-6.48,123.204  l17.548,32.516C483.917,220.566,512,196.579,512,160.344C512,130.349,492.129,91.988,461.503,70.331z" fill="#9d6ef5"/><path d="M481.766,324.88c-7.186-9.881-11.056-21.784-11.056-34.001V244.81  c0-38.183-28.933-70.155-66.927-73.954L233.6,154.692c-9.39-0.892-17.951-5.755-23.525-13.364l-7.495-10.231l-0.866-0.585  c3.305-11.268,1.684-24.772-3.005-34.512c-7.82-16.243-35.871-50.581-64-50.581h-22.157c-12.622,0-24.768,4.817-33.959,13.467  L57.806,78.452L6.072,92.951c-4.147,1.139-6.726,5.271-5.927,9.497l3.126,14.688c1.35,7.143,7.184,12.425,14.278,13.273  l1.741,10.835c1.185,6.101,5.592,11.023,11.525,12.874c12.189,3.803,34.424,9.299,58.97,8.951c3.999-0.057,7.377,2.877,7.576,6.871  c0.562,11.251,2.532,28.683,8.706,48.454l8.964,24.806c6.575,15.895,15.757,34.574,27.938,55.122  c38.653,65.203,38.71,126.968,38.71,126.968l-23.902,11.951c-5.595,2.798-9.13,8.517-9.13,14.773v6.308  c0,4.561,3.697,8.258,8.258,8.258h42.601c8.593,0,15.751-6.589,16.46-15.153l10.703-129.26  c44.071,12.179,116.339,3.633,151.178-13.222c35.476,49.715,84.606,59.914,84.606,59.914v56.43l-30.908,12.363  c-6.27,2.508-10.382,8.581-10.382,15.334v5.335c0,4.561,3.697,8.258,8.258,8.258h43.557c8.187,0,15.138-5.997,16.338-14.096  l13.933-94.05c0.317-2.14-0.218-4.318-1.49-6.067L481.766,324.88z" fill="#ab4beb"/><path d="M106.066,218.394l8.964,24.806c6.575,15.895,15.757,34.574,27.938,55.122  c6.394,10.786,11.645,21.444,16.101,31.777c-6.491-27.194-16.627-58.261-22.295-76.68c-12.387-40.258-8.942-84.652-9.806-103.226  c-1.032-22.194-27.871-21.506-35.441-19.441l-72.699,7.621l0.461,2.869c1.185,6.101,5.592,11.023,11.525,12.874  c12.188,3.802,34.424,9.299,58.97,8.951c3.999-0.057,7.377,2.877,7.576,6.871C97.922,181.192,99.892,198.623,106.066,218.394z" fill="#b160eb"/><path d="M198.71,96c-5.277-10.96-19.765-30.16-37.273-41.489c-12.443-8.052-29.156-2.398-34.212,11.534  l-0.079,0.218c-2.255,6.213-1.457,12.952,1.426,18.9c10.324,21.296,5.977,62.45,39.17,66.062  C205.013,155.282,208.774,116.903,198.71,96z" fill="#9d6ef5"/><path d="M90.919,94.968c-4.56,0-8.298-3.698-8.298-8.258s3.657-8.258,8.218-8.258h0.081  c4.56,0,8.258,3.698,8.258,8.258S95.48,94.968,90.919,94.968z" fill="#b685ff"/><path d="M377.845,308.946c-4.356-6.893-7.743-13.758-10.144-19.201c-2.692-6.105-9.262-9.509-15.78-8.08  c-38.92,8.529-79.864,2.738-103.257-2.202c-10.286-2.172-20.038,5.32-20.588,15.819l-1.409,26.886  C270.738,334.347,343.006,325.801,377.845,308.946z" fill="#b160eb"/><path d="M86.141,121.879c-13.437,3.597-37.489,6.601-68.576,8.632l1.724,10.733  c0.395,2.034,1.257,3.859,2.305,5.56c0.316-0.022,0.616-0.038,0.932-0.059c24.442-1.69,51.21-4.453,67.878-8.912  c4.409-1.178,7.023-5.704,5.845-10.108C95.072,123.311,90.536,120.682,86.141,121.879z" fill="#bd23d9"/><path d="M0.145,102.448l2.621,12.316c0.567,0.061,1.122,0.16,1.708,0.16c8.171,0,14.795-6.162,14.795-13.763  c0-4.199-2.065-7.912-5.252-10.437l-7.945,2.227C1.925,94.09-0.654,98.222,0.145,102.448z" fill="#b685ff"/><path d="M106.212,226.867c-3.513-0.047-6.652-2.667-7.423-6.485c-0.898-4.439,1.751-8.823,5.911-9.796  c0.582-0.133,58.476-14.141,107.522-68.719c2.955-3.282,7.842-3.401,10.918-0.259c3.076,3.146,3.175,8.358,0.224,11.644  c-52.468,58.384-112.871,72.845-115.416,73.43C107.367,226.814,106.785,226.874,106.212,226.867z" fill="#e666ff"/><path d="M103.226,257.376L103.226,257.376c-6.841,0-12.387-5.546-12.387-12.387v-8.258  c0-6.841,5.546-12.387,12.387-12.387l0,0c6.841,0,12.387,5.546,12.387,12.387v8.258C115.613,251.83,110.067,257.376,103.226,257.376  z" fill="#9d6ef5"/></g><g transform="matrix(0.1171875 0 0 0.1171875 222.00000154495228 97)" id="L1_7"><g><path d="M391.813,427.981c-4.334,0-7.846-3.513-7.846-7.846v-20.791c0-4.333,3.512-7.846,7.846-7.846   s7.846,3.513,7.846,7.846v20.791C399.659,424.469,396.146,427.981,391.813,427.981z" fill="#f9c941"/><path d="M391.813,483.955c-4.334,0-7.846-3.513-7.846-7.846v-20.791c0-4.333,3.512-7.846,7.846-7.846   s7.846,3.513,7.846,7.846v20.791C399.659,480.442,396.146,483.955,391.813,483.955z" fill="#f9c941"/><path d="M430.195,445.572h-20.791c-4.334,0-7.846-3.513-7.846-7.846c0-4.333,3.512-7.846,7.846-7.846h20.791   c4.334,0,7.846,3.513,7.846,7.846C438.04,442.059,434.529,445.572,430.195,445.572z" fill="#f9c941"/><path d="M374.22,445.572h-20.79c-4.334,0-7.846-3.513-7.846-7.846c0-4.333,3.512-7.846,7.846-7.846h20.79   c4.334,0,7.846,3.513,7.846,7.846C382.066,442.059,378.554,445.572,374.22,445.572z" fill="#f9c941"/></g><path d="M510.758,227.028c0,64.564-51.258,115.769-124.483,115.769c-37.878,0-72.953,0-94.806,10.178  c-10.68,4.958-18.212,12.354-21.35,23.369c-2.866,10.021-2.113,23.024,3.18,39.918C296.313,489.729,200.074,512,200.074,512  c2.919-8.065,4.833-15.858,5.785-23.317c0.146-1.046,0.262-2.071,0.356-3.096c0-0.021,0-0.042,0.01-0.063  c4.163-44.448-26.225-75.935-81.468-75.935c-84.429,0-100.423-95.737-25.106-126.899c44.615-18.474,101.459-8.808,143.427-12.689  c4.498-0.408,8.818-0.983,12.94-1.757c0.094-0.01,0.188-0.021,0.272-0.042c1.956-0.377,3.86-0.795,5.712-1.266  c19.258-4.896,33.171-15.409,37.753-37.68c12.595-61.258-77.912-48.433-103.52-43.642c-0.094,0.01-0.178,0.031-0.251,0.052  c-2.427,0.45-4.247,0.837-5.304,1.067c-0.063,0.021-0.136,0.031-0.199,0.042c-0.188,0.031-0.356,0.073-0.481,0.105  c-0.251,0.052-0.387,0.084-0.387,0.084c-0.617,0.115-1.224,0.22-1.852,0.324C-35.282,226.15-32.939,67.722,63.038,19.989  C73.53,14.77,84.42,10.753,95.477,7.74c90.339-24.666,192.467,17.511,192.467,17.511s-130.833-2.448-147.193,59.302  c-0.251,0.962-0.471,1.893-0.649,2.793c-2.699,14.049,4.237,21.413,17.553,24.907c29.091,7.636,88.665-3.211,144.934-3.211  C459.5,109.042,510.758,162.465,510.758,227.028z" fill="#cf8bfc"/><g><path d="M359.385,207.399c-10.733,33.276-46.372,48.057-97.379,59.532   c19.258-4.896,33.171-15.409,37.753-37.68c12.595-61.258-77.912-48.433-103.52-43.642   C229.169,179.123,373.298,153.62,359.385,207.399z" fill="#9966cc"/><path d="M206.229,485.519c4.163-44.448-26.225-75.935-81.468-75.935   c-84.429,0-100.423-95.737-25.106-126.899c44.615-18.474,101.459-8.808,143.427-12.689l0.188,0.9   c-177.833,19.572-93.101,114.336-68.518,130.55C198.812,417.315,211.344,437.692,206.229,485.519z" fill="#9966cc"/><path d="M187.766,187.283C-35.278,226.145-32.935,67.717,63.042,19.984   c10.492-5.22,21.382-9.237,32.439-12.25C-15.737,84.642,112.48,199.229,187.766,187.283z" fill="#9966cc"/></g><g><path d="M467.163,90.146l18.677-3.787c8.817-1.788,8.817-14.389,0-16.176l-18.677-3.787   c-18.405-3.731-32.789-18.116-36.521-36.521l-3.787-18.677c-1.788-8.817-14.389-8.817-16.176,0l-3.787,18.677   c-3.731,18.405-18.116,32.789-36.521,36.521l-18.677,3.787c-8.817,1.788-8.817,14.389,0,16.176l18.677,3.787   c18.405,3.731,32.789,18.116,36.521,36.521l3.787,18.677c1.788,8.817,14.389,8.817,16.176,0l3.787-18.677   C434.374,108.262,448.758,93.878,467.163,90.146z" fill="#f9d366"/><path d="M232.81,323.514l18.677-3.787c8.817-1.788,8.817-14.389,0-16.176l-18.677-3.787   c-18.405-3.731-32.789-18.116-36.521-36.521l-3.787-18.677c-1.788-8.817-14.389-8.817-16.176,0l-3.787,18.677   c-3.731,18.405-18.116,32.789-36.521,36.521l-18.677,3.787c-8.817,1.788-8.817,14.389,0,16.176l18.677,3.787   c18.405,3.731,32.789,18.116,36.521,36.521l3.787,18.677c1.788,8.817,14.389,8.817,16.176,0l3.787-18.677   C200.021,341.63,214.404,327.246,232.81,323.514z" fill="#f9d366"/></g><g><path d="M157.656,112.253c-47.251-5.304-58.748-30.388-58.748-55.484c0,0,11.005,26.769,41.194,30.577   C137.404,101.395,144.339,108.759,157.656,112.253z" fill="#9966cc"/><path d="M291.469,352.965v0.01c-10.68,4.958-18.212,12.354-21.35,23.369   c-19.237,6.59-37.313,25.629-37.313,25.629C241.174,375.822,271.029,359.639,291.469,352.965z" fill="#9966cc"/><path d="M379.26,293.177c44.981-5.23,75.317-50.212,75.317-82.64c0,0,16.214,37.136-13.599,66.949   C411.165,307.299,379.26,293.177,379.26,293.177z" fill="#9966cc"/></g></g><g transform="matrix(0.1171875 0 0 0.1171875 60 10)" id="L1_9"><path d="m376.769 205.451h-241.538c-7.185 0-13.01-5.825-13.01-13.01 0-7.185 5.825-13.01 13.01-13.01h241.538c7.185 0 13.01 5.825 13.01 13.01 0 7.185-5.825 13.01-13.01 13.01z" fill="#e6e2e6"/><path d="m376.769 179.43h-18.581c7.185 0 13.01 5.825 13.01 13.01s-5.825 13.01-13.01 13.01h18.581c7.185 0 13.01-5.825 13.01-13.01s-5.825-13.01-13.01-13.01z" fill="#d8d1d7"/><path d="m207.847 329.218c-22.334-15.346-36.984-41.067-36.984-70.213v-53.553h-25.538s-21.685 64.598-23.039 166.949c35.55-21.74 85.561-43.183 85.561-43.183z" fill="#b2b2b2"/><path d="m170.864 259.004v-53.553h-20.031c.358 30.837 4.225 79.92 23.026 139.384 19.204-9.278 33.987-15.617 33.988-15.617-22.334-15.346-36.983-41.067-36.983-70.214z" fill="#a0a0a0"/><path d="m304.152 329.218c22.334-15.346 36.983-41.067 36.983-70.213v-53.553h25.539s21.685 64.598 23.039 166.949c-35.549-21.74-85.56-43.183-85.561-43.183z" fill="#b2b2b2"/><path d="m389.713 372.4c-1.353-102.352-23.039-166.949-23.039-166.949h-18.581s20.161 60.072 22.815 156.136c6.472 3.529 12.842 7.167 18.805 10.813z" fill="#a0a0a0"/><path d="m418.948 394.411c-23.681-26.131-114.796-65.194-114.796-65.194-13.696 9.411-30.279 14.923-48.153 14.923-17.873 0-34.457-5.512-48.152-14.923 0 0-91.115 39.063-114.796 65.194-23.68 26.131-54.711 117.589-54.711 117.589h217.66 217.66s-31.031-91.458-54.712-117.589z" fill="#a67eff"/><path d="m400.368 403.702c19.061 21.033 42.879 84.378 51.449 108.298h21.843s-31.03-91.458-54.711-117.589-114.796-65.193-114.796-65.193c-5.593 3.843-11.675 7.023-18.123 9.456 25.597 11.612 95.598 44.349 114.338 65.028z" fill="#8f73f4"/><path d="m256 344.14c-47.02 0-85.136-38.117-85.136-85.136v-53.553h170.272v53.553c0 47.02-38.116 85.136-85.136 85.136z" fill="#ffc89f"/><path d="m322.555 205.451v53.553c0 43.879-33.198 79.992-75.846 84.622 3.052.331 6.149.514 9.29.514 47.019 0 85.136-38.117 85.136-85.136v-53.553z" fill="#f7b081"/><path d="m164.199 179.43s7.272-77.323 72.457-144.177c60.82-62.378 64.155-34.049 60.15 23.451-3.425 49.167 49.542 68.219 60.441 120.726z" fill="#a67eff"/><path d="m296.806 58.705c2.938-42.186 1.924-68.668-22.842-55.149 6.397 7.898 6.128 28.353 4.261 55.149-3.425 49.167 49.542 68.219 60.441 120.725h18.581c-10.899-52.506-63.866-71.558-60.441-120.725z" fill="#8f73f4"/><path d="m256 305.918c66.626 40.629 87.792-8.034 87.792-8.034-56.051 0-87.792-26.573-87.792-26.573s-31.741 26.573-87.792 26.573c0 0 21.166 48.663 87.792 8.034z" fill="#e6e2e6"/><path d="m256 305.918c-33.261 20.282-55.191 18.311-68.815 11.252 4.019 30.811 18.364 94.607 68.815 112.325 50.451-17.718 64.796-81.515 68.815-112.325-13.624 7.06-35.554 9.031-68.815-11.252z" fill="#e6e2e6"/><path d="m256 305.918c-33.261 20.282-55.191 18.311-68.815 11.252.75 5.752 1.861 12.654 3.499 20.191 13.776 5.62 34.764 5.769 65.316-12.862 30.553 18.631 51.54 18.481 65.316 12.862 1.638-7.537 2.749-14.439 3.499-20.191-13.624 7.06-35.554 9.031-68.815-11.252z" fill="#d8d1d7"/><path d="m190.598 336.942c-17.754 8.171-45.9 21.753-68.311 35.458s37.048 34.158 107.03 41.079c-22.482-20.366-33.415-51.912-38.719-76.537z" fill="#825fff"/><path d="m173.859 344.835c5.524 21.85 15.507 47.293 33.505 65.422 6.92 1.346 14.223 2.457 21.952 3.222-22.481-20.366-33.414-51.912-38.718-76.537-4.9 2.255-10.594 4.924-16.739 7.893z" fill="#6b54dd"/><path d="m321.402 336.942c17.754 8.171 45.901 21.753 68.311 35.458s-37.048 34.158-107.03 41.079c22.482-20.366 33.415-51.912 38.719-76.537z" fill="#825fff"/><g fill="#6b54dd"><path d="m373.954 383.784c10.423-6.473 15.759-11.384 15.759-11.384-22.411-13.704-50.557-27.287-68.311-35.458-1.122 5.207-2.499 10.726-4.18 16.381 18.356 8.933 39.686 19.928 56.732 30.461z"/><path d="m129.963 512v-42.856c0-4.276-3.466-7.742-7.742-7.742s-7.742 3.466-7.742 7.742v42.856z"/><path d="m397.521 512v-42.856c0-4.276-3.466-7.742-7.742-7.742s-7.742 3.466-7.742 7.742v42.856z"/></g><path d="m214.637 266.339c6.621 0 12.008-5.387 12.008-12.008s-5.387-12.008-12.008-12.008-12.007 5.387-12.007 12.008 5.386 12.008 12.007 12.008z" fill="#686167"/><path d="m297.363 266.339c6.622 0 12.008-5.387 12.008-12.008s-5.386-12.008-12.008-12.008-12.008 5.387-12.008 12.008 5.386 12.008 12.008 12.008z" fill="#686167"/></g><g transform="matrix(-0.07261928838671003 -0.03844550427240891 -0.03844550427240891 0.07261928838671003 183.73291106566342 213.5993010245806)" id="L1_10"><path d="m30.019531 123.355469s-10.679687 31.5-9.140625 71.691406c.75 19.613281 24.820313 28.523437 38.289063 14.242187 29.3125-31.089843 78.160156-68.550781 134.570312-54.066406-3.726562-3.726562-37.257812-95.625-37.257812-95.625s-90.238281-16.542968-126.460938 63.757813zm0 0" fill="#b86eff"/><path d="m193.738281 155.222656c-3.722656-3.726562-37.253906-95.625-37.253906-95.625s-90.242187-16.542968-126.464844 63.757813c0 0-1.320312 3.890625-2.957031 10.660156 23.308594 2.082031 49.964844 13.445313 56.085938 52.863281 28.917968-23.523437 67.550781-42.707031 110.589843-31.65625zm0 0" fill="#9f4dff"/><path d="m38.320312 398.5s108.132813-60.804688 97.976563-170.511719c-10.160156-109.707031-48.519531-196.054687-106.277344-104.632812 0 0 32.796875-134.113281 208.382813-113.769531 185.089844 21.445312 202.414062 365.691406 202.414062 365.691406zm0 0" fill="#cf92ff"/><path d="m132.625 197.367188c1.476562 9.90625 2.703125 20.15625 3.671875 30.621093 10.15625 109.707031-97.976563 170.511719-97.976563 170.511719l134.308594-7.75c21.125-115.355469-39.894531-193.242188-40.003906-193.382812zm0 0" fill="#b86eff"/><path d="m38.320312 398.5 402.5-23.222656s-2.847656-56.539063-18.550781-125.214844c-44.363281 9.828125-99.585937 22.5625-150.402343 35.675781-68.523438 17.683594-116.136719 10.242188-141.9375 2.355469-22.5625 71.578125-91.609376 110.40625-91.609376 110.40625zm0 0" fill="#ffeb99"/><path d="m172.933594 295.894531c-18.003906-1.371093-32.363282-4.546875-43.003906-7.800781-22.5625 71.578125-91.609376 110.40625-91.609376 110.40625l134.308594-7.75c6.515625-35.578125 5.21875-67.585938.304688-94.855469zm0 0" fill="#ffde55"/><path d="m254.808594 369.167969-17.726563-76.699219c-2.277343-9.851562 3.863281-19.6875 13.71875-21.964844l89.269531-20.628906c9.847657-2.28125 19.683594 3.863281 21.964844 13.71875l17.722656 76.695312c2.277344 9.851563-3.863281 19.6875-13.71875 21.964844l-89.269531 20.628906c-15.308593 3.605469-20.867187-8.984374-21.960937-13.714843zm22.078125-67.101563 9.480469 41.011719 53.585937-12.386719-9.480469-41.011718zm0 0" fill="#898890"/><path d="m16.542969 380.699219c8.574219-9.523438 21.644531-13.628907 34.117187-10.691407 34.390625 8.109376 109.652344 21.425782 193.648438 8.269532 62.371094-9.769532 122.484375-31.1875 167.007812-50.160156 38.5625-16.433594 86.113282 10.425781 91.609375 47.492187 5.496094 37.0625-16.242187 73.34375-53.574219 80-41.925781 7.476563-107.09375 14.34375-205.042968 14.34375-116.847656 0-181.71875-17.773437-216.585938-33.988281-21.359375-9.933594-26.933594-37.757813-11.179687-55.265625zm0 0" fill="#dfaeff"/><path d="m136.769531 430.28125c.417969-32.78125 30.140625-44.519531 35.792969-46.457031-53.382812.152343-97.734375-8.117188-121.902344-13.816407-12.46875-2.9375-25.542968 1.167969-34.117187 10.691407-15.753907 17.507812-10.179688 45.332031 11.179687 55.265625 26.597656 12.371094 70.65625 25.644531 141.917969 31.246094-5.621094-.558594-33.285156-4.921876-32.871094-36.929688zm0 0" fill="#cf92ff"/><path d="m500.015625 410.628906c-23.5-23.769531-70.285156-29.371094-114.199219-.511718-78.628906 51.671874-182.761718 59.042968-182.761718 59.042968 12.976562.511719 26.710937.789063 41.253906.789063 97.949218 0 163.117187-6.867188 205.042968-14.34375 25.15625-4.488281 43.230469-22.410157 50.664063-44.976563zm0 0" fill="#cf92ff"/><path d="m360.046875 187.226562c4.0625-.796874 6.714844-4.738281 5.917969-8.804687l-2.394532-12.214844c-.792968-4.066406-4.734374-6.714843-8.800781-5.921875-4.0625.796875-6.714843 4.738282-5.917969 8.804688l2.394532 12.214844c.792968 4.066406 4.734375 6.714843 8.800781 5.921874zm0 0"/><path d="m196.476562 191.285156c-4.066406.796875-6.714843 4.738282-5.921874 8.804688l2.394531 12.214844c.796875 4.066406 4.734375 6.714843 8.800781 5.921874 4.0625-.796874 6.714844-4.738281 5.917969-8.800781l-2.394531-12.21875c-.792969-4.066406-4.734376-6.714843-8.796876-5.921875zm0 0"/><path d="m260.339844 193.074219c-3.699219-1.863281-8.207032-.375-10.070313 3.324219-1.863281 3.699218-.375 8.210937 3.328125 10.070312 9.15625 4.609375 19.285156 5.828125 28.808594 3.960938 9.527344-1.863282 18.449219-6.8125 25.191406-14.535157 2.722656-3.117187 2.402344-7.855469-.71875-10.582031-3.121094-2.722656-7.859375-2.402344-10.582031.71875-8.976563 10.285156-23.761719 13.179688-35.957031 7.042969zm0 0"/><path d="m510.25 374.003906s-9.371094-54.054687-68.273438-58.621094c-11.382812-78.980468-42.15625-215.515624-122.355468-279.332031-3.238282-2.578125-7.957032-2.039062-10.535156 1.199219-2.578126 3.242188-2.042969 7.960938 1.199218 10.539062 33.964844 27.027344 62.117188 71.183594 83.679688 131.238282 7.878906 21.949218 14.199218 44.21875 19.257812 65.363281-15.929687 3.550781-31.539062 7.09375-46.578125 10.574219-2.089843-3.691406-9.234375-16.238282-28.261719-12.398438l-89.269531 20.632813c-18.707031 3.636719-19.65625 19.164062-19.945312 23.324219-39.992188 5.335937-70.027344 1.5-89.960938-3.613282 4.761719-18.082031 6.3125-36.675781 4.558594-55.613281-3.566406-38.484375-10.328125-72.304687-19.554687-97.800781-10.882813-30.058594-24.734376-47.296875-41.179688-51.246094-7.964844-1.910156-16.046875-.664062-24.222656 3.71875 4.324218-6.054688 9.433594-12.296875 15.4375-18.410156 16.703125-17.007813 37.046875-29.742188 60.464844-37.859375 29.523437-10.230469 64.117187-13.144531 102.828124-8.660157 16.722657 1.9375 32.730469 6.785157 47.574219 14.410157 3.6875 1.894531 8.207031.441406 10.097657-3.242188 1.894531-3.6875.441406-8.207031-3.246094-10.097656-16.449219-8.453125-34.183594-13.824219-52.699219-15.96875-41.1875-4.773437-78.1875-1.554687-109.976563 9.5625-25.671874 8.980469-47.96875 23.089844-66.300781 41.914063-46.34375 47.589843-51.113281 102.171874-49.601562 141.71875.460937 12.109374 7.804687 22.28125 19.160156 26.542968 3.511719 1.316406 20.253906 5.238282 32.078125-7.441406 18.042969-19.355469 36.855469-33.652344 55.71875-42.910156 3.652344 17.058594 6.554688 36.300781 8.484375 57.15625 5.832031 62.964844-28.976563 109.332031-60.023437 137.578125-6.277344-1.238281-11.792969-2.453125-16.421876-3.546875-15.132812-3.566406-31 1.402344-41.414062 12.972656-9.144531 10.15625-12.820312 23.667969-10.085938 37.066406 2.722657 13.34375 11.351563 24.277344 23.675782 30.011719 34.023437 15.824219 99.769531 34.6875 219.75 34.6875 83.121094 0 152.550781-4.863281 206.359375-14.460937 20.109375-3.585938 37.429687-14.898438 48.773437-31.863282 11.324219-16.933594 15.164063-37.21875 10.808594-57.125zm-456.539062-169.863281c-4.957032 5.257813-11.460938 5.351563-15.894532 3.6875-5.679687-2.128906-9.210937-7.015625-9.441406-13.070313-1.328125-34.722656 6.898438-63.070312 8.488281-68.175781 20.082031-31.492187 34.277344-35.761719 42.667969-33.75 14.414062 3.460938 27.734375 27.179688 37.285156 63.773438-21.546875 9.992187-42.75 25.945312-63.105468 47.535156zm373.203124 111.886719c-8.984374.433594-33.378906 11.402344-41.675781 14.660156l-14.179687-61.351562c14.707031-3.398438 29.957031-6.859376 45.507812-10.324219 4.605469 21.074219 7.949219 40.601562 10.347656 57.015625zm-174.425781-38.214844 89.273438-20.632812c9.710937-2.675782 12.316406 5.289062 12.964843 8.101562l16.367188 70.816406c-31.578125 11.757813-69.441406 23.707032-108.96875 31.421875-.003906-.011719-.007812-.03125-.011719-.042969l-17.726562-76.695312c-.648438-2.816406-.84375-10.191406 8.101562-12.96875zm-236.910156 131.945312c-1.769531-8.691406.613281-17.453124 6.542969-24.039062 6.746094-7.496094 17.019531-10.722656 26.820312-8.410156 26.253906 6.191406 79.75 16.191406 143.003906 13.59375 4.136719-.171875 7.355469-3.664063 7.183594-7.800782-.167968-4.140624-3.675781-7.359374-7.800781-7.1875-40.476563 1.664063-76.828125-1.980468-104.222656-6.382812 15.527343-15.464844 36.019531-38.792969 47.632812-72.292969 14.226563 3.710938 55.675781 9.417969 96.699219 4.113281l15.90625 68.832032c-1.394531.230468-18.457031 2.734375-25.660156 3.503906-4.121094.4375-7.101563 4.132812-6.664063 8.253906.441407 4.117188 4.136719 7.105469 8.253907 6.660156 7.445312-.792968 78.511718-2.757812 190.984374-53.582031 16.207032-7.324219 34.992188-6.679687 50.570313 1.835938 30.355469 16.59375 36.050781 45.066406 31.640625 60.976562-26.714844-18.933593-71.191406-22.613281-114.769531 6.023438-76.007813 49.945312-179.597657 57.609375-180.632813 57.679687l.003906.035156c-90.0625-3.796874-141.800781-19.203124-170.1875-32.40625-7.964843-3.703124-13.539062-10.777343-15.304687-19.40625zm432.457031 38.46875c-44.359375 7.910157-99.683594 12.550782-164.832031 13.847657 33.5-8.914063 72.425781-23.140625 106.734375-45.6875 19.574219-12.863281 40.679688-19.167969 61.039062-18.234375 16.332032.75 30.726563 6.148437 41.101563 15.292968-8.339844 21.238282-27.988281 31.917969-44.042969 34.78125zm0 0"/><path d="m279.058594 344.765625c.804687 3.46875 3.523437 6.570313 8.996094 5.621094l53.585937-12.386719c5.652344-1.3125 6.066406-7.058594 5.621094-8.996094l-9.480469-41.011718c-.929688-4.039063-4.964844-6.546876-8.996094-5.621094l-53.585937 12.386718c-5.652344 1.71875-6.066407 7.058594-5.617188 8.996094zm45.796875-46.089844 6.101562 26.398438-38.972656 9.007812-6.101563-26.398437zm0 0"/></g><g transform="matrix(0.18572573363780975 0 0 0.18572573363780975 26 124.999999773284)" id="L1_14"><path d="M281.442,256.312c-47.124,59.364-139.536,44.676-160.956-29.376c-1.224-3.672-1.836-7.956-2.448-11.628    c49.572-11.016,97.92-47.124,102.204-90.576c3.672-39.168-36.108-50.796-62.424-28.764    c-31.212,26.316-53.244,64.872-55.08,105.875c-31.824,4.284-63.036-4.284-80.172-35.496    c-28.764-52.631,9.792-123.624,61.2-144.432c5.508-1.836,3.06-10.404-2.448-8.568C10.326,33.544-26.394,132.688,21.954,191.439    c18.972,22.645,49.572,29.988,81.396,26.316c4.284,41.616,36.72,74.664,75.275,87.516c44.676,14.688,85.68-6.731,111.996-41.616    C294.906,258.147,285.725,251.416,281.442,256.312z M144.354,132.688c9.792-13.464,22.644-28.764,39.168-34.272    c15.911-5.508,21.42,16.524,22.031,26.316c0.612,12.24-7.956,23.256-15.912,31.824c-16.523,18.971-44.063,35.496-72.215,42.839    C119.262,175.527,130.89,152.272,144.354,132.688z" fill="#ac38ff"/><path d="M315.713,233.668c-17.136,0-34.884,1.224-51.408,5.508c-6.731,1.836-3.672,11.016,3.061,9.792    c13.464-2.448,27.54-1.836,41.004-1.224c-0.612,7.955-1.224,16.523-2.448,24.479c-1.224,6.12-5.508,15.3-1.836,21.42    c1.836,3.061,4.896,3.061,7.956,1.836c7.344-3.06,7.344-15.912,8.568-22.644c1.836-11.017,2.447-21.42,2.447-32.437    C323.057,236.728,319.385,233.668,315.713,233.668z" fill="#ac38ff"/></g><path d="M427.507,7.414c-3.716-4.144-10.091-4.491-14.233-0.776c-4.146,3.717-4.493,10.089-0.778,14.234    c74.99,83.641,97.742,181.244,64.065,274.828c-34.967,97.167-126.892,175.167-223.548,189.68    c-71.818,10.784-135.57-15.541-179.507-74.122C7.345,323.046,14.407,255.97,31.981,215.234    c22.572-52.325,76.41-90.578,137.158-97.455c53.304-6.037,100.712,13.47,130.073,53.511c38.39,52.35,31.421,91.981,18.815,116.009    c-17.897,34.113-58.27,57.173-98.21,56.022c-17.368-0.491-48.85-6.478-64.567-41.055c-11.93-26.246-11.728-48.672,0.583-64.852    c14.169-18.619,44.177-28.438,72.99-23.887c20.028,3.166,34.157,12.529,38.766,25.689c5.406,15.436,5.291,28.148-0.347,37.784    c-8.091,13.831-25.599,18.449-29.543,19.333c-5.916-0.265-31.15-2.988-31.15-30.211c0-4.938,0.773-11.313,4.456-13.648    c5.704-3.622,18.104,0.173,23.229,2.586c5.022,2.396,11.034,0.276,13.433-4.744c2.404-5.021,0.283-11.039-4.737-13.443    c-2.613-1.251-26.034-11.933-42.654-1.465c-6.334,3.99-13.886,12.558-13.886,30.715c0,39.862,34.138,50.395,52.187,50.395    c0.561,0,1.125-0.047,1.678-0.14c1.23-0.208,30.316-5.363,44.283-29.023c8.859-15.004,9.557-33.442,2.077-54.801    c-7.141-20.383-27.058-34.574-54.645-38.936c-30.277-4.79-70.517,3.128-92.178,31.591c-11.912,15.655-22.085,43.181-2.894,85.402    c14.789,32.533,44.802,51.802,82.348,52.864c1.107,0.031,2.215,0.047,3.32,0.047c46.242-0.001,92.474-27.132,113.313-66.854    c21.588-41.149,14.339-89.908-20.412-137.294c-33.756-46.031-87.919-68.502-148.595-61.621    c-67.803,7.676-128.016,50.657-153.401,109.5C-14.356,271.751,1.237,348.5,57.378,423.354    c41.461,55.28,98.891,84.583,164.235,84.582c11.243,0,22.725-0.869,34.393-2.621c103.66-15.564,202.155-98.955,239.521-202.79    C531.833,201.64,507.674,96.834,427.507,7.414z" transform="matrix(0.1171875 0 0 0.1171875 227 -7.999994850158828)" id="L1_15" fill="#ac38ff"/></defs><g fi:class="KUsePattern"><pattern id="pattern_L1_0" width="350" height="350" patternUnits="userSpaceOnUse"><use xlink:href="#L1_0" x="-350" y="-350"/><use xlink:href="#L1_0" x="0" y="-350"/><use xlink:href="#L1_0" x="350" y="-350"/><use xlink:href="#L1_0" x="-350" y="0"/><use xlink:href="#L1_0" x="0" y="0"/><use xlink:href="#L1_0" x="350" y="0"/><use xlink:href="#L1_0" x="-350" y="350"/><use xlink:href="#L1_0" x="0" y="350"/><use xlink:href="#L1_0" x="350" y="350"/></pattern><rect x="0" y="0" width="100%" height="100%" fill="url(#pattern_L1_0)"/></g><g fi:class="KUsePattern"><pattern id="pattern_L1_2" width="350" height="350" patternUnits="userSpaceOnUse"><use xlink:href="#L1_2" x="-350" y="-350"/><use xlink:href="#L1_2" x="0" y="-350"/><use xlink:href="#L1_2" x="350" y="-350"/><use xlink:href="#L1_2" x="-350" y="0"/><use xlink:href="#L1_2" x="0" y="0"/><use xlink:href="#L1_2" x="350" y="0"/><use xlink:href="#L1_2" x="-350" y="350"/><use xlink:href="#L1_2" x="0" y="350"/><use xlink:href="#L1_2" x="350" y="350"/></pattern><rect x="0" y="0" width="100%" height="100%" fill="url(#pattern_L1_2)"/></g><g fi:class="KUsePattern"><pattern id="pattern_L1_7" width="350" height="350" patternUnits="userSpaceOnUse"><use xlink:href="#L1_7" x="-350" y="-350"/><use xlink:href="#L1_7" x="0" y="-350"/><use xlink:href="#L1_7" x="350" y="-350"/><use xlink:href="#L1_7" x="-350" y="0"/><use xlink:href="#L1_7" x="0" y="0"/><use xlink:href="#L1_7" x="350" y="0"/><use xlink:href="#L1_7" x="-350" y="350"/><use xlink:href="#L1_7" x="0" y="350"/><use xlink:href="#L1_7" x="350" y="350"/></pattern><rect x="0" y="0" width="100%" height="100%" fill="url(#pattern_L1_7)"/></g><g fi:class="KUsePattern"><pattern id="pattern_L1_9" width="350" height="350" patternUnits="userSpaceOnUse"><use xlink:href="#L1_9" x="-350" y="-350"/><use xlink:href="#L1_9" x="0" y="-350"/><use xlink:href="#L1_9" x="350" y="-350"/><use xlink:href="#L1_9" x="-350" y="0"/><use xlink:href="#L1_9" x="0" y="0"/><use xlink:href="#L1_9" x="350" y="0"/><use xlink:href="#L1_9" x="-350" y="350"/><use xlink:href="#L1_9" x="0" y="350"/><use xlink:href="#L1_9" x="350" y="350"/></pattern><rect x="0" y="0" width="100%" height="100%" fill="url(#pattern_L1_9)"/></g><g fi:class="KUsePattern"><pattern id="pattern_L1_10" width="350" height="350" patternUnits="userSpaceOnUse"><use xlink:href="#L1_10" x="-350" y="-350"/><use xlink:href="#L1_10" x="0" y="-350"/><use xlink:href="#L1_10" x="350" y="-350"/><use xlink:href="#L1_10" x="-350" y="0"/><use xlink:href="#L1_10" x="0" y="0"/><use xlink:href="#L1_10" x="350" y="0"/><use xlink:href="#L1_10" x="-350" y="350"/><use xlink:href="#L1_10" x="0" y="350"/><use xlink:href="#L1_10" x="350" y="350"/></pattern><rect x="0" y="0" width="100%" height="100%" fill="url(#pattern_L1_10)"/></g><g fi:class="KUsePattern"><pattern id="pattern_L1_14" width="350" height="350" patternUnits="userSpaceOnUse"><use xlink:href="#L1_14" x="-350" y="-350"/><use xlink:href="#L1_14" x="0" y="-350"/><use xlink:href="#L1_14" x="350" y="-350"/><use xlink:href="#L1_14" x="-350" y="0"/><use xlink:href="#L1_14" x="0" y="0"/><use xlink:href="#L1_14" x="350" y="0"/><use xlink:href="#L1_14" x="-350" y="350"/><use xlink:href="#L1_14" x="0" y="350"/><use xlink:href="#L1_14" x="350" y="350"/></pattern><rect x="0" y="0" width="100%" height="100%" fill="url(#pattern_L1_14)"/></g><g fi:class="KUsePattern"><pattern id="pattern_L1_15" width="350" height="350" patternUnits="userSpaceOnUse"><use xlink:href="#L1_15" x="-350" y="-350"/><use xlink:href="#L1_15" x="0" y="-350"/><use xlink:href="#L1_15" x="350" y="-350"/><use xlink:href="#L1_15" x="-350" y="0"/><use xlink:href="#L1_15" x="0" y="0"/><use xlink:href="#L1_15" x="350" y="0"/><use xlink:href="#L1_15" x="-350" y="350"/><use xlink:href="#L1_15" x="0" y="350"/><use xlink:href="#L1_15" x="350" y="350"/></pattern><rect x="0" y="0" width="100%" height="100%" fill="url(#pattern_L1_15)"/></g></svg>