<svg width="149" height="56" viewBox="0 0 149 56" fill="none" xmlns="http://www.w3.org/2000/svg">
<path d="M12.4383 3.65217H2.52652V49H8.74565V16.9326L14.0578 49H20.7952L25.7187 16.4791V49H32.4561V3.65217H22.5443L17.6857 35.8491L12.4383 3.65217ZM56.6858 3.65217H46.2558L39.0001 49H45.5432L46.7741 40.7726H55.5197L56.7506 49H63.9415L56.6858 3.65217ZM51.1145 11.6852L54.548 34.6183H47.681L51.1145 11.6852ZM81.1883 30.213H84.4274V38.57C84.4274 41.8091 83.0022 42.9752 80.7348 42.9752C78.4674 42.9752 77.0422 41.8091 77.0422 38.57V14.0822C77.0422 10.843 78.4674 9.61217 80.7348 9.61217C83.0022 9.61217 84.4274 10.843 84.4274 14.0822V18.9409H91.1648V14.5357C91.1648 7.28 87.537 3.13391 80.5405 3.13391C73.544 3.13391 69.9161 7.28 69.9161 14.5357V38.1165C69.9161 45.3722 73.544 49.5183 80.5405 49.5183C87.537 49.5183 91.1648 45.3722 91.1648 38.1165V23.7348H81.1883V30.213ZM98.9807 49H106.107V3.65217H98.9807V49ZM130.817 49H138.137L128.226 23.8643L138.137 3.65217H131.011L121.682 23.4109V3.65217H114.556V49H121.682V35.0717L123.885 30.9257L130.817 49Z" fill="white"/>
<rect x="100" y="10" width="5" height="38" fill="#111111"/>
</svg>
