<svg width="90" height="100" viewBox="0 0 90 100" fill="none" xmlns="http://www.w3.org/2000/svg">
<path d="M27.5 65.8722C27.5 55.602 27.5 45.3317 27.5 35.0614C29.1421 35.0123 30.7842 35.0123 32.4263 34.9631C32.4263 33.3415 32.4263 31.6708 32.4263 30.0491C42.1824 30.0491 51.8902 30.0491 61.6463 30C61.6463 33.145 61.598 36.3391 61.598 39.484C54.6432 39.7297 47.6884 39.9754 40.7335 40.2211C40.7335 46.2654 40.7335 52.3096 40.6852 58.3538C44.1143 58.0098 47.4952 57.6167 50.9243 57.2727C50.9243 55.0123 50.9243 52.7519 50.9243 50.4914C54.45 50.2457 57.9757 49.9509 61.5015 49.7543C61.5015 55.1597 61.4532 60.516 61.4532 65.9214C51.7454 67.1007 42.0376 68.4767 32.378 70C32.378 68.3784 32.378 66.7076 32.378 65.086C30.7359 65.43 29.0938 65.6757 27.5 65.8722Z" fill="#38B6FF"/>
<path d="M48.6976 3.96879L83.6976 23.8021C86.0476 25.1338 87.5 27.6262 87.5 30.3273V69.6727C87.5 72.3738 86.0476 74.8662 83.6976 76.1979L48.6976 96.0312C46.4039 97.331 43.5961 97.331 41.3024 96.0312L6.30241 76.1979C3.95242 74.8662 2.5 72.3738 2.5 69.6727V30.3273C2.5 27.6262 3.95241 25.1338 6.30241 23.8021L41.3024 3.9688C43.5961 2.66902 46.4039 2.66902 48.6976 3.96879Z" stroke="#38B6FF" stroke-width="5"/>
</svg>
