<svg xmlns="http://www.w3.org/2000/svg" xmlns:xlink="http://www.w3.org/1999/xlink" viewBox="0 0 452.21 448.15"><defs><style>.cls-1{isolation:isolate;}.cls-2{fill:#2c0faf;}.cls-10,.cls-12,.cls-15,.cls-3,.cls-6,.cls-7{mix-blend-mode:multiply;}.cls-3{fill:url(#radial-gradient);}.cls-4{opacity:0.4;mix-blend-mode:hard-light;fill:url(#New_Gradient_Swatch_1);}.cls-5{fill:#cbaffb;}.cls-6{fill:url(#linear-gradient);}.cls-7{fill:url(#linear-gradient-2);}.cls-11,.cls-13,.cls-14,.cls-16,.cls-8{mix-blend-mode:lighten;}.cls-8{fill:url(#radial-gradient-2);}.cls-9{fill:#a4fcf3;}.cls-10{fill:url(#linear-gradient-3);}.cls-11{fill:url(#radial-gradient-3);}.cls-12{fill:url(#linear-gradient-4);}.cls-13{fill:url(#radial-gradient-4);}.cls-14{fill:url(#radial-gradient-5);}.cls-15{fill:url(#linear-gradient-5);}.cls-16{fill:url(#radial-gradient-6);}</style><radialGradient id="radial-gradient" cx="585.35" cy="595.05" r="312.6" gradientUnits="userSpaceOnUse"><stop offset="0" stop-color="#4d4d4d"/><stop offset="1" stop-color="#666" stop-opacity="0"/></radialGradient><radialGradient id="New_Gradient_Swatch_1" cx="67.54" cy="39.94" r="433.08" gradientUnits="userSpaceOnUse"><stop offset="0" stop-color="#e6e6e6"/><stop offset="1" stop-color="#e6e6e6" stop-opacity="0"/></radialGradient><linearGradient id="linear-gradient" x1="159.26" y1="130.81" x2="158.98" y2="158.47" gradientUnits="userSpaceOnUse"><stop offset="0" stop-color="#363240"/><stop offset="1" stop-color="#5c17e5" stop-opacity="0"/></linearGradient><linearGradient id="linear-gradient-2" x1="225.16" y1="321.96" x2="231.58" y2="275.55" gradientTransform="translate(465.04 537.53) rotate(-180)" xlink:href="#linear-gradient"/><radialGradient id="radial-gradient-2" cx="112.55" cy="187.79" r="57.44" gradientUnits="userSpaceOnUse"><stop offset="0" stop-color="#f2f2f2"/><stop offset="1" stop-color="#f2f2f2" stop-opacity="0"/></radialGradient><linearGradient id="linear-gradient-3" x1="341.93" y1="173.94" x2="291.18" y2="199.03" xlink:href="#linear-gradient"/><radialGradient id="radial-gradient-3" cx="182.27" cy="160.24" r="104.98" xlink:href="#radial-gradient-2"/><linearGradient id="linear-gradient-4" x1="172.84" y1="304.99" x2="315.42" y2="254.23" xlink:href="#linear-gradient"/><radialGradient id="radial-gradient-4" cx="424.32" cy="164.81" r="122.27" xlink:href="#radial-gradient-2"/><radialGradient id="radial-gradient-5" cx="423.04" cy="149.55" r="98.19" xlink:href="#radial-gradient-2"/><linearGradient id="linear-gradient-5" x1="226.04" y1="458.57" x2="229.46" y2="400.97" xlink:href="#linear-gradient"/><radialGradient id="radial-gradient-6" cx="172" cy="292.1" r="111.86" xlink:href="#radial-gradient-2"/></defs><g class="cls-1"><g id="Layer_3" data-name="Layer 3"><path class="cls-2" d="M445.67,520.87q-145.67,6.4-291.34,0a80.82,80.82,0,0,1-77.21-77.13q-6.45-143.74,0-287.48a80.82,80.82,0,0,1,77.21-77.13q145.67-6.41,291.34,0a80.82,80.82,0,0,1,77.21,77.13q6.45,143.75,0,287.48A80.82,80.82,0,0,1,445.67,520.87Z" transform="translate(-73.9 -75.92)"/><path class="cls-3" d="M445.67,520.87q-145.67,6.4-291.34,0a80.82,80.82,0,0,1-77.21-77.13q-6.45-143.74,0-287.48a80.82,80.82,0,0,1,77.21-77.13q145.67-6.41,291.34,0a80.82,80.82,0,0,1,77.21,77.13q6.45,143.75,0,287.48A80.82,80.82,0,0,1,445.67,520.87Z" transform="translate(-73.9 -75.92)"/><path class="cls-4" d="M445.67,520.87q-145.67,6.4-291.34,0a80.82,80.82,0,0,1-77.21-77.13q-6.45-143.74,0-287.48a80.82,80.82,0,0,1,77.21-77.13q145.67-6.41,291.34,0a80.82,80.82,0,0,1,77.21,77.13q6.45,143.75,0,287.48A80.82,80.82,0,0,1,445.67,520.87Z" transform="translate(-73.9 -75.92)"/><rect class="cls-5" x="131.89" y="144.46" width="53.46" height="96.77"/><rect class="cls-6" x="131.89" y="144.46" width="53.46" height="96.77"/><rect class="cls-7" x="205.79" y="220.38" width="53.46" height="96.77" transform="translate(391.14 461.61) rotate(180)"/><rect class="cls-8" x="131.89" y="144.46" width="53.46" height="96.77"/><path class="cls-9" d="M205.79,220.38h0A53.17,53.17,0,0,1,259,167.21h62.71L357,220.38Z" transform="translate(-73.9 -75.92)"/><path class="cls-10" d="M205.79,220.38h0A53.17,53.17,0,0,1,259,167.21h62.71L357,220.38Z" transform="translate(-73.9 -75.92)"/><path class="cls-11" d="M205.79,220.38h0A53.17,53.17,0,0,1,259,167.21h62.71L357,220.38Z" transform="translate(-73.9 -75.92)"/><path class="cls-5" d="M320,167.21H283.41l48.25,48.25c23.21,23.21,24.09,61,1.18,84.53a59.73,59.73,0,0,1-85,.57l-42,44.58H321.07a89,89,0,0,0,89-89.64C409.67,206.45,369,167.21,320,167.21Z" transform="translate(-73.9 -75.92)"/><path class="cls-12" d="M320,167.21H283.41l48.25,48.25c23.21,23.21,24.09,61,1.18,84.53a59.73,59.73,0,0,1-85,.57l-42,44.58H321.07a89,89,0,0,0,89-89.64C409.67,206.45,369,167.21,320,167.21Z" transform="translate(-73.9 -75.92)"/><path class="cls-13" d="M320,167.21H283.41l48.25,48.25c23.21,23.21,24.09,61,1.18,84.53a59.73,59.73,0,0,1-85,.57l-42,44.58H321.07a89,89,0,0,0,89-89.64C409.67,206.45,369,167.21,320,167.21Z" transform="translate(-73.9 -75.92)"/><path class="cls-14" d="M320,167.21H283.41l48.25,48.25c23.21,23.21,24.09,61,1.18,84.53a59.73,59.73,0,0,1-85,.57l-42,44.58H321.07a89,89,0,0,0,89-89.64C409.67,206.45,369,167.21,320,167.21Z" transform="translate(-73.9 -75.92)"/><path class="cls-9" d="M205.79,297.39V406.2a26.58,26.58,0,0,0,26.58,26.59h0A26.59,26.59,0,0,0,259,406.2V345.14l.29-35.61-29.08-23.64A14.9,14.9,0,0,0,205.79,297.39Z" transform="translate(-73.9 -75.92)"/><path class="cls-15" d="M205.79,297.39V406.2a26.58,26.58,0,0,0,26.58,26.59h0A26.59,26.59,0,0,0,259,406.2V345.14l.29-35.61-29.08-23.64A14.9,14.9,0,0,0,205.79,297.39Z" transform="translate(-73.9 -75.92)"/><path class="cls-16" d="M205.79,297.39V406.2a26.58,26.58,0,0,0,26.58,26.59h0A26.59,26.59,0,0,0,259,406.2V345.14l.29-35.61-29.08-23.64A14.9,14.9,0,0,0,205.79,297.39Z" transform="translate(-73.9 -75.92)"/></g></g></svg>