<svg xmlns="http://www.w3.org/2000/svg" xmlns:xlink="http://www.w3.org/1999/xlink" viewBox="0 0 452.21 448.15"><defs><style>.cls-1{isolation:isolate;}.cls-2{fill:#2c0faf;}.cls-10,.cls-14,.cls-16,.cls-3{mix-blend-mode:multiply;}.cls-3{fill:url(#radial-gradient);}.cls-4{opacity:0.4;mix-blend-mode:hard-light;fill:url(#New_Gradient_Swatch_1);}.cls-5{fill:#c52ed1;}.cls-6{fill:#cbaffb;}.cls-7{fill:#47c2f6;}.cls-8{fill:#a4fcf3;}.cls-12,.cls-13,.cls-15,.cls-17,.cls-20,.cls-9{mix-blend-mode:lighten;}.cls-9{fill:url(#radial-gradient-2);}.cls-11{fill:url(#linear-gradient);}.cls-12{fill:url(#radial-gradient-3);}.cls-13{fill:url(#radial-gradient-4);}.cls-14{fill:url(#linear-gradient-2);}.cls-15{fill:url(#radial-gradient-5);}.cls-16{fill:url(#linear-gradient-3);}.cls-17,.cls-19{fill:url(#radial-gradient-6);}.cls-18{fill:url(#linear-gradient-4);}.cls-20{fill:url(#radial-gradient-8);}</style><radialGradient id="radial-gradient" cx="585.35" cy="595.05" r="312.6" gradientUnits="userSpaceOnUse"><stop offset="0" stop-color="#4d4d4d"/><stop offset="1" stop-color="#666" stop-opacity="0"/></radialGradient><radialGradient id="New_Gradient_Swatch_1" cx="67.54" cy="39.94" r="433.08" gradientUnits="userSpaceOnUse"><stop offset="0" stop-color="#e6e6e6"/><stop offset="1" stop-color="#e6e6e6" stop-opacity="0"/></radialGradient><radialGradient id="radial-gradient-2" cx="8886.9" cy="5786.3" r="90.11" gradientTransform="translate(9046.4 6091.29) rotate(180)" gradientUnits="userSpaceOnUse"><stop offset="0" stop-color="#f2f2f2"/><stop offset="1" stop-color="#f2f2f2" stop-opacity="0"/></radialGradient><linearGradient id="linear-gradient" x1="299.25" y1="155.42" x2="265.23" y2="221.88" gradientUnits="userSpaceOnUse"><stop offset="0" stop-color="#363240"/><stop offset="1" stop-color="#5c17e5" stop-opacity="0"/></linearGradient><radialGradient id="radial-gradient-3" cx="346.71" cy="178.67" r="90.11" gradientTransform="matrix(1, 0, 0, 1, 0, 0)" xlink:href="#radial-gradient-2"/><radialGradient id="radial-gradient-4" cx="157.41" cy="304.72" r="85.06" gradientTransform="matrix(1, 0, 0, 1, 0, 0)" xlink:href="#radial-gradient-2"/><linearGradient id="linear-gradient-2" x1="293.7" y1="430.82" x2="338.01" y2="359.61" xlink:href="#linear-gradient"/><radialGradient id="radial-gradient-5" cx="402.29" cy="161.12" r="65.24" gradientTransform="matrix(1, 0, 0, 1, 0, 0)" xlink:href="#radial-gradient-2"/><linearGradient id="linear-gradient-3" x1="350.58" y1="295.31" x2="353.22" y2="227.27" xlink:href="#linear-gradient"/><radialGradient id="radial-gradient-6" cx="208.84" cy="334.39" r="74.66" gradientTransform="matrix(1, 0, 0, 1, 0, 0)" xlink:href="#radial-gradient-2"/><linearGradient id="linear-gradient-4" x1="241.4" y1="435.67" x2="241.4" y2="400.06" xlink:href="#linear-gradient"/><radialGradient id="radial-gradient-8" cx="408.62" cy="260.81" r="112.76" gradientTransform="matrix(1, 0, 0, 1, 0, 0)" xlink:href="#radial-gradient-2"/></defs><g class="cls-1"><g id="Layer_5" data-name="Layer 5"><path class="cls-2" d="M445.67,520.87q-145.67,6.4-291.34,0a80.82,80.82,0,0,1-77.21-77.13q-6.45-143.74,0-287.48a80.82,80.82,0,0,1,77.21-77.13q145.67-6.41,291.34,0a80.82,80.82,0,0,1,77.21,77.13q6.45,143.75,0,287.48A80.82,80.82,0,0,1,445.67,520.87Z" transform="translate(-73.9 -75.92)"/><path class="cls-3" d="M445.67,520.87q-145.67,6.4-291.34,0a80.82,80.82,0,0,1-77.21-77.13q-6.45-143.74,0-287.48a80.82,80.82,0,0,1,77.21-77.13q145.67-6.41,291.34,0a80.82,80.82,0,0,1,77.21,77.13q6.45,143.75,0,287.48A80.82,80.82,0,0,1,445.67,520.87Z" transform="translate(-73.9 -75.92)"/><path class="cls-4" d="M445.67,520.87q-145.67,6.4-291.34,0a80.82,80.82,0,0,1-77.21-77.13q-6.45-143.74,0-287.48a80.82,80.82,0,0,1,77.21-77.13q145.67-6.41,291.34,0a80.82,80.82,0,0,1,77.21,77.13q6.45,143.75,0,287.48A80.82,80.82,0,0,1,445.67,520.87Z" transform="translate(-73.9 -75.92)"/><path class="cls-5" d="M355,289.58H290L331.4,331.2a46.38,46.38,0,0,1-62.93,68.05L289,419.82l66.92.08a65.16,65.16,0,0,0,65.15-66C420.61,318.07,390.76,289.58,355,289.58Z" transform="translate(-73.9 -75.92)"/><path class="cls-6" d="M355,289.58H290L331.4,331.2a46.38,46.38,0,0,1-62.93,68.05L289,419.82l66.92.08a65.16,65.16,0,0,0,65.15-66C420.61,318.07,390.76,289.58,355,289.58Z" transform="translate(-73.9 -75.92)"/><path class="cls-7" d="M242.94,307h65l-41.45-41.62a46.38,46.38,0,0,1,62.93-68l-20.53-20.58L242,176.67a65.16,65.16,0,0,0-65.15,66C177.27,278.51,207.12,307,242.94,307Z" transform="translate(-73.9 -75.92)"/><path class="cls-8" d="M242.94,307h65l-41.45-41.62a46.38,46.38,0,0,1,62.93-68l-20.53-20.58L242,176.67a65.16,65.16,0,0,0-65.15,66C177.27,278.51,207.12,307,242.94,307Z" transform="translate(-73.9 -75.92)"/><path class="cls-9" d="M242.94,307h65l-41.45-41.62a46.38,46.38,0,0,1,62.93-68l-20.53-20.58L242,176.67a65.16,65.16,0,0,0-65.15,66C177.27,278.51,207.12,307,242.94,307Z" transform="translate(-73.9 -75.92)"/><g class="cls-10"><path class="cls-11" d="M242.94,307h65l-41.45-41.62a46.38,46.38,0,0,1,62.93-68l-20.53-20.58L242,176.67a65.16,65.16,0,0,0-65.15,66C177.27,278.51,207.12,307,242.94,307Z" transform="translate(-73.9 -75.92)"/><path class="cls-12" d="M242.94,307h65l-41.45-41.62a46.38,46.38,0,0,1,62.93-68l-20.53-20.58L242,176.67a65.16,65.16,0,0,0-65.15,66C177.27,278.51,207.12,307,242.94,307Z" transform="translate(-73.9 -75.92)"/></g><path class="cls-13" d="M242.94,307h65l-41.45-41.62a46.38,46.38,0,0,1,62.93-68l-20.53-20.58L242,176.67a65.16,65.16,0,0,0-65.15,66C177.27,278.51,207.12,307,242.94,307Z" transform="translate(-73.9 -75.92)"/><path class="cls-14" d="M355,289.58H290L331.4,331.2a46.38,46.38,0,0,1-62.93,68.05L289,419.82l66.92.08a65.16,65.16,0,0,0,65.15-66C420.61,318.07,390.76,289.58,355,289.58Z" transform="translate(-73.9 -75.92)"/><path class="cls-8" d="M312.89,199.7l24.58,24.87,24,24.07c22.23,18.8,57.4,3.25,57.4-26.87h0a45,45,0,0,0-45-45l-84.2-.1,20.53,20.58C311.13,198,312,198.84,312.89,199.7Z" transform="translate(-73.9 -75.92)"/><path class="cls-15" d="M312.89,199.7l24.58,24.87,24,24.07c22.23,18.8,57.4,3.25,57.4-26.87h0a45,45,0,0,0-45-45l-84.2-.1,20.53,20.58C311.13,198,312,198.84,312.89,199.7Z" transform="translate(-73.9 -75.92)"/><path class="cls-16" d="M312.89,199.7l24.58,24.87,24,24.07c22.23,18.8,57.4,3.25,57.4-26.87h0a45,45,0,0,0-45-45l-84.2-.1,20.53,20.58C311.13,198,312,198.84,312.89,199.7Z" transform="translate(-73.9 -75.92)"/><path class="cls-6" d="M282.81,396.8l-24.59-24.87-24-24.07c-22.23-18.8-57.41-3.26-57.41,26.87h0a45,45,0,0,0,45,45l84.21.09-20.54-20.57C284.56,398.47,283.67,397.66,282.81,396.8Z" transform="translate(-73.9 -75.92)"/><path class="cls-6" d="M282.81,396.8l-24.59-24.87-24-24.07c-22.23-18.8-57.41-3.26-57.41,26.87h0a45,45,0,0,0,45,45l84.21.09-20.54-20.57C284.56,398.47,283.67,397.66,282.81,396.8Z" transform="translate(-73.9 -75.92)"/><path class="cls-17" d="M282.81,396.8l-24.59-24.87-24-24.07c-22.23-18.8-57.41-3.26-57.41,26.87h0a45,45,0,0,0,45,45l84.21.09-20.54-20.57C284.56,398.47,283.67,397.66,282.81,396.8Z" transform="translate(-73.9 -75.92)"/><g class="cls-10"><path class="cls-18" d="M282.81,396.8l-24.59-24.87-24-24.07c-22.23-18.8-57.41-3.26-57.41,26.87h0a45,45,0,0,0,45,45l84.21.09-20.54-20.57C284.56,398.47,283.67,397.66,282.81,396.8Z" transform="translate(-73.9 -75.92)"/><path class="cls-19" d="M282.81,396.8l-24.59-24.87-24-24.07c-22.23-18.8-57.41-3.26-57.41,26.87h0a45,45,0,0,0,45,45l84.21.09-20.54-20.57C284.56,398.47,283.67,397.66,282.81,396.8Z" transform="translate(-73.9 -75.92)"/></g><path class="cls-20" d="M355,289.65H290l41.45,41.62a46.38,46.38,0,0,1-62.93,68L289,419.89l66.92.08a65.17,65.17,0,0,0,65.15-66C420.61,318.13,390.76,289.65,355,289.65Z" transform="translate(-73.9 -75.92)"/></g></g></svg>